<?xml version="1.0" standalone="no"?>
<svg xmlns="http://www.w3.org/2000/svg" viewBox="0 0 161.661 29" width="161.661" height="29"><g fill="#000000" color="#000000" transform="translate(0, 0) scale(0.90625)"><svg width="32.0" height="32.0" x="0.0" y="0.0" viewBox="0 0 32 32"><path d="M25.781,21.382c0.69-0.691,0.607-4.311,0.607-4.311c0-2.21-0.663-10.334-1.602-12.103c-0.94-1.768-6.19-3.26-8.787-3.26s-7.847,1.492-8.786,3.26c-0.939,1.769-1.603,9.893-1.603,12.103c0,0-0.083,3.619,0.607,4.311c0.455,0.455,2.205,1.581,3.663,2.423l-3.744,6.486h2.31l0.673-1.166h13.759l0.673,1.166h2.311l-3.744-6.486C23.576,22.963,25.326,21.837,25.781,21.382zM23.819,16.795c-0.473,0-0.856-0.384-0.856-0.856s0.384-0.856,0.856-0.856c0.474,0,0.856,0.384,0.856,0.856S24.293,16.795,23.819,16.795zM20.421,6.959h3.768c0.326,1.565,0.616,3.98,0.807,6.134h-4.574V6.959zM14.417,3.125h3.166v1.333h-3.166V3.125zM7.812,6.959h3.768v6.134H7.005C7.195,10.939,7.485,8.524,7.812,6.959zM8.181,16.795c-0.474,0-0.856-0.384-0.856-0.856s0.383-0.856,0.856-0.856c0.473,0,0.856,0.384,0.856,0.856S8.653,16.795,8.181,16.795zM9.341,15.938c0-0.473,0.384-0.856,0.856-0.856c0.474,0,0.856,0.384,0.856,0.856s-0.383,0.856-0.856,0.856C9.725,16.795,9.341,16.411,9.341,15.938zM10.275,27.125l0.99-1.715h9.469l0.99,1.715H10.275zM20.946,15.938c0-0.473,0.383-0.856,0.856-0.856c0.473,0,0.856,0.384,0.856,0.856s-0.384,0.856-0.856,0.856C21.329,16.795,20.946,16.411,20.946,15.938z"></path></svg></g><line x1="41" y1="1" x2="41" y2="28" stroke="#000000" stroke-linecap="round"></line><path fill="#000000" fill-rule="nonzero" d="M0 17.26L0 17.26Q0 16.62 0.08 16.07Q0.15 15.53 0.30 14.89L0.30 14.89L2.66 14.89L2.66 15.87Q2.66 16.68 2.76 17.30Q2.86 17.92 3.09 18.35Q3.32 18.77 3.70 18.99Q4.08 19.21 4.63 19.21L4.63 19.21Q5.50 19.21 5.95 18.73Q6.41 18.26 6.41 17.34L6.41 17.34Q6.41 16.88 6.35 16.48Q6.28 16.09 6.12 15.70Q5.96 15.32 5.70 14.89Q5.43 14.46 5.00 13.93L5.00 13.93L1.84 10.17Q1.00 9.09 0.54 8.00Q0.08 6.90 0.08 5.66L0.08 5.66Q0.08 4.66 0.39 3.83Q0.70 3 1.29 2.40Q1.88 1.79 2.74 1.46Q3.60 1.13 4.69 1.13L4.69 1.13Q6.01 1.13 6.90 1.50Q7.78 1.88 8.31 2.48Q8.84 3.09 9.05 3.85Q9.27 4.61 9.27 5.37L9.27 5.37Q9.27 6.01 9.17 6.56Q9.07 7.10 8.94 7.76L8.94 7.76L6.60 7.76L6.60 6.81Q6.60 5.21 6.14 4.37Q5.68 3.52 4.65 3.52L4.65 3.52Q3.80 3.52 3.38 3.99Q2.95 4.46 2.95 5.26L2.95 5.26Q2.95 5.68 3.02 6.02Q3.08 6.36 3.21 6.65Q3.33 6.94 3.50 7.21Q3.68 7.48 3.90 7.77L3.90 7.77L7.43 12.04Q8.39 13.29 8.91 14.44Q9.42 15.60 9.42 16.89L9.42 16.89Q9.42 17.95 9.09 18.81Q8.75 19.66 8.13 20.26Q7.51 20.86 6.63 21.18Q5.75 21.50 4.65 21.50L4.65 21.50Q3.29 21.50 2.40 21.14Q1.50 20.78 0.97 20.18Q0.43 19.58 0.22 18.82Q0 18.06 0 17.26ZM14.02 21.49L14.02 21.49Q13.27 21.49 12.69 21.19Q12.11 20.89 11.71 20.38Q11.31 19.86 11.10 19.15Q10.90 18.45 10.90 17.61L10.90 17.61Q10.90 16.62 11.14 15.84Q11.39 15.07 11.87 14.45Q12.34 13.83 13.04 13.32Q13.75 12.81 14.67 12.35L14.67 12.35Q15.12 12.13 15.67 11.90Q16.23 11.67 16.66 11.51L16.66 11.51L16.66 9.38Q16.66 8.91 16.63 8.50Q16.59 8.10 16.46 7.80Q16.32 7.50 16.05 7.33Q15.79 7.16 15.32 7.16L15.32 7.16Q15 7.16 14.70 7.28Q14.40 7.39 14.17 7.68Q13.95 7.96 13.81 8.43Q13.68 8.89 13.68 9.59L13.68 9.59L13.68 10.29L11.41 10.29Q11.31 9.83 11.26 9.45Q11.20 9.07 11.20 8.70L11.20 8.70Q11.20 7.79 11.51 7.10Q11.82 6.41 12.38 5.94Q12.94 5.47 13.71 5.23Q14.48 4.99 15.41 4.99L15.41 4.99Q16.62 4.99 17.41 5.26Q18.21 5.52 18.69 6.05Q19.16 6.57 19.35 7.37Q19.55 8.17 19.55 9.23L19.55 9.23L19.55 21.32L17.34 21.32L17.13 19.93Q16.65 20.63 15.85 21.06Q15.05 21.49 14.02 21.49ZM15.33 19.21L15.33 19.21Q15.70 19.21 16.06 19.01Q16.42 18.82 16.66 18.54L16.66 18.54L16.66 13.49Q16.43 13.58 16.14 13.71Q15.84 13.84 15.50 14.05L15.50 14.05Q15.19 14.25 14.88 14.53Q14.58 14.81 14.34 15.20Q14.10 15.59 13.95 16.07Q13.80 16.56 13.80 17.16L13.80 17.16Q13.80 18.08 14.17 18.64Q14.53 19.21 15.33 19.21ZM22.62 21.32L22.62 5.18L24.91 5.18L25.17 6.90L25.17 6.91Q25.52 6.36 25.92 5.99Q26.32 5.63 26.75 5.40Q27.18 5.18 27.63 5.09Q28.08 4.99 28.52 4.99L28.52 4.99Q29.47 4.99 30.13 5.45Q30.79 5.91 31.13 6.82L31.13 6.82Q31.48 6.29 31.87 5.94Q32.26 5.59 32.68 5.38Q33.11 5.17 33.54 5.08Q33.97 4.99 34.42 4.99L34.42 4.99Q35.82 4.99 36.59 5.98Q37.36 6.97 37.36 8.95L37.36 8.95L37.36 21.32L34.39 21.32L34.39 9.06Q34.39 8.53 34.31 8.17Q34.23 7.80 34.07 7.58Q33.90 7.36 33.64 7.26Q33.39 7.16 33.02 7.16L33.02 7.16Q32.61 7.16 32.20 7.46Q31.79 7.76 31.45 8.29L31.45 8.29Q31.46 8.39 31.46 8.50Q31.46 8.60 31.46 8.71L31.46 8.71L31.46 21.32L28.50 21.32L28.50 9.06Q28.50 8.53 28.42 8.17Q28.34 7.80 28.17 7.58Q28.01 7.36 27.75 7.26Q27.49 7.16 27.13 7.16L27.13 7.16Q26.73 7.16 26.32 7.45Q25.91 7.75 25.58 8.26L25.58 8.26L25.58 21.32L22.62 21.32ZM42.66 21.49L42.66 21.49Q41.91 21.49 41.33 21.19Q40.75 20.89 40.35 20.38Q39.95 19.86 39.74 19.15Q39.54 18.45 39.54 17.61L39.54 17.61Q39.54 16.62 39.79 15.84Q40.03 15.07 40.51 14.45Q40.98 13.83 41.68 13.32Q42.39 12.81 43.31 12.35L43.31 12.35Q43.76 12.13 44.31 11.90Q44.87 11.67 45.30 11.51L45.30 11.51L45.30 9.38Q45.30 8.91 45.27 8.50Q45.23 8.10 45.10 7.80Q44.96 7.50 44.70 7.33Q44.43 7.16 43.96 7.16L43.96 7.16Q43.64 7.16 43.34 7.28Q43.04 7.39 42.81 7.68Q42.59 7.96 42.45 8.43Q42.32 8.89 42.32 9.59L42.32 9.59L42.32 10.29L40.05 10.29Q39.95 9.83 39.90 9.45Q39.84 9.07 39.84 8.70L39.84 8.70Q39.84 7.79 40.15 7.10Q40.46 6.41 41.02 5.94Q41.58 5.47 42.35 5.23Q43.13 4.99 44.05 4.99L44.05 4.99Q45.26 4.99 46.05 5.26Q46.85 5.52 47.33 6.05Q47.80 6.57 47.99 7.37Q48.19 8.17 48.19 9.23L48.19 9.23L48.19 21.32L45.98 21.32L45.77 19.93Q45.29 20.63 44.49 21.06Q43.69 21.49 42.66 21.49ZM43.97 19.21L43.97 19.21Q44.34 19.21 44.70 19.01Q45.06 18.82 45.30 18.54L45.30 18.54L45.30 13.49Q45.07 13.58 44.78 13.71Q44.48 13.84 44.14 14.05L44.14 14.05Q43.83 14.25 43.52 14.53Q43.22 14.81 42.98 15.20Q42.74 15.59 42.59 16.07Q42.45 16.56 42.45 17.16L42.45 17.16Q42.45 18.08 42.81 18.64Q43.17 19.21 43.97 19.21ZM58.43 21.32L58.43 3.69L55.21 3.69L55.21 1.30L64.68 1.30L64.68 3.69L61.46 3.69L61.46 21.32L58.43 21.32ZM66.54 21.32L66.54 5.18L68.71 5.18L68.96 6.82Q69.46 5.91 70.10 5.45Q70.73 4.99 71.40 4.99L71.40 4.99Q72.68 4.99 73.29 5.78Q73.90 6.56 73.90 8.13L73.90 8.13Q73.90 8.33 73.87 8.61Q73.84 8.88 73.79 9.18Q73.73 9.48 73.66 9.78Q73.58 10.08 73.50 10.32L73.50 10.32L71.44 10.32L71.44 8.82Q71.44 8.33 71.37 8.02Q71.31 7.70 71.20 7.51Q71.10 7.31 70.96 7.24Q70.82 7.16 70.65 7.16L70.65 7.16Q70.30 7.16 70.00 7.39Q69.70 7.62 69.50 8.03L69.50 8.03L69.50 21.32L66.54 21.32ZM78 21.49L78 21.49Q77.25 21.49 76.67 21.19Q76.09 20.89 75.69 20.38Q75.29 19.86 75.09 19.15Q74.88 18.45 74.88 17.61L74.88 17.61Q74.88 16.62 75.13 15.84Q75.38 15.07 75.85 14.45Q76.32 13.83 77.03 13.32Q77.73 12.81 78.66 12.35L78.66 12.35Q79.10 12.13 79.66 11.90Q80.21 11.67 80.65 11.51L80.65 11.51L80.65 9.38Q80.65 8.91 80.61 8.50Q80.58 8.10 80.44 7.80Q80.31 7.50 80.04 7.33Q79.77 7.16 79.30 7.16L79.30 7.16Q78.98 7.16 78.69 7.28Q78.39 7.39 78.16 7.68Q77.93 7.96 77.79 8.43Q77.66 8.89 77.66 9.59L77.66 9.59L77.66 10.29L75.40 10.29Q75.29 9.83 75.24 9.45Q75.19 9.07 75.19 8.70L75.19 8.70Q75.19 7.79 75.50 7.10Q75.81 6.41 76.37 5.94Q76.92 5.47 77.70 5.23Q78.47 4.99 79.39 4.99L79.39 4.99Q80.60 4.99 81.40 5.26Q82.20 5.52 82.67 6.05Q83.14 6.57 83.34 7.37Q83.53 8.17 83.53 9.23L83.53 9.23L83.53 21.32L81.33 21.32L81.12 19.93Q80.64 20.63 79.83 21.06Q79.03 21.49 78 21.49ZM79.31 19.21L79.31 19.21Q79.69 19.21 80.04 19.01Q80.40 18.82 80.65 18.54L80.65 18.54L80.65 13.49Q80.41 13.58 80.12 13.71Q79.83 13.84 79.49 14.05L79.49 14.05Q79.17 14.25 78.87 14.53Q78.56 14.81 78.32 15.20Q78.08 15.59 77.94 16.07Q77.79 16.56 77.79 17.16L77.79 17.16Q77.79 18.08 78.15 18.64Q78.52 19.21 79.31 19.21ZM88.90 21.32L85.27 5.18L88.22 5.18L89.78 13.76L90.16 17.19L90.26 17.19L90.70 13.76L92.25 5.18L95.11 5.18L91.43 21.32L88.90 21.32ZM100.73 21.49L100.73 21.49Q99.69 21.49 98.89 21.11Q98.09 20.72 97.54 19.90Q96.98 19.08 96.70 17.79Q96.42 16.51 96.42 14.71L96.42 14.71L96.42 11.66Q96.42 10.13 96.65 9.03Q96.88 7.93 97.25 7.19Q97.62 6.45 98.10 6.01Q98.59 5.58 99.11 5.35Q99.62 5.12 100.13 5.06Q100.64 4.99 101.07 4.99L101.07 4.99Q101.87 4.99 102.61 5.23Q103.35 5.47 103.91 6.05Q104.47 6.63 104.81 7.61Q105.14 8.58 105.14 10.03L105.14 10.03Q105.14 10.52 105.11 11.03Q105.08 11.53 105.04 12.02Q104.99 12.50 104.91 12.96Q104.84 13.42 104.75 13.80L104.75 13.80L99.40 13.80L99.40 15.45Q99.40 16.50 99.48 17.22Q99.56 17.94 99.76 18.38Q99.95 18.82 100.28 19.01Q100.62 19.21 101.12 19.21L101.12 19.21Q101.39 19.21 101.65 19.10Q101.91 18.98 102.10 18.73Q102.29 18.47 102.41 18.04Q102.53 17.61 102.53 16.98L102.53 16.98L102.53 16.48L105 16.48L105 17.10Q105 19.39 103.90 20.44Q102.81 21.49 100.73 21.49ZM99.40 11.81L102.38 11.81Q102.39 11.68 102.40 11.47Q102.41 11.25 102.42 11.02Q102.42 10.78 102.42 10.55Q102.42 10.32 102.42 10.16L102.42 10.16Q102.42 8.57 102.05 7.86Q101.67 7.16 100.93 7.16L100.93 7.16Q100.55 7.16 100.25 7.34Q99.96 7.52 99.77 7.95Q99.59 8.38 99.49 9.08Q99.40 9.79 99.40 10.83L99.40 10.83L99.40 11.81ZM107.70 21.32L107.70 0L110.66 0L110.66 21.32L107.70 21.32Z" transform="translate(51, 3.749)"></path></svg>